<?xml version="1.0" standalone="no"?><!DOCTYPE svg PUBLIC "-//W3C//DTD SVG 1.1//EN" "http://www.w3.org/Graphics/SVG/1.1/DTD/svg11.dtd"><svg t="1572769811110" class="icon" viewBox="0 0 1024 1024" version="1.1" xmlns="http://www.w3.org/2000/svg" p-id="3397" xmlns:xlink="http://www.w3.org/1999/xlink" width="200" height="200"><defs><style type="text/css"></style></defs><path d="M977.454545 535.272727V116.363636c0-65.163636-46.545455-116.363636-116.363636-116.363636H179.2C116.363636 0 46.545455 46.545455 46.545455 114.036364V907.636364c0 69.818182 69.818182 116.363636 132.654545 116.363636H861.090909c69.818182 0 116.363636-51.2 116.363636-116.363636V535.272727z m-46.545454 186.181818v186.181819c0 39.563636-25.6 69.818182-69.818182 69.818181H179.2C139.636364 977.454545 93.090909 947.2 93.090909 907.636364V114.036364C93.090909 74.472727 139.636364 46.545455 179.2 46.545455H861.090909c44.218182 0 69.818182 30.254545 69.818182 69.818181v605.090909z" fill="#666666" p-id="3398"></path><path d="M691.2 216.436364c-9.309091-9.309091-23.272727-9.309091-32.581818 0L512 363.054545l-146.618182-146.618181c-9.309091-9.309091-23.272727-9.309091-32.581818 0-9.309091 9.309091-9.309091 23.272727 0 32.581818l146.618182 146.618182H349.090909c-11.636364 0-23.272727 11.636364-23.272727 23.272727s11.636364 23.272727 23.272727 23.272727h139.636364v116.363637h-139.636364c-11.636364 0-23.272727 11.636364-23.272727 23.272727s11.636364 23.272727 23.272727 23.272727h139.636364v186.181818c0 11.636364 11.636364 23.272727 23.272727 23.272728s23.272727-11.636364 23.272727-23.272728v-186.181818h139.636364c11.636364 0 23.272727-11.636364 23.272727-23.272727s-11.636364-23.272727-23.272727-23.272727h-139.636364v-116.363637h139.636364c11.636364 0 23.272727-11.636364 23.272727-23.272727s-11.636364-23.272727-23.272727-23.272727h-130.327273l146.618182-146.618182c9.309091-9.309091 9.309091-23.272727 0-32.581818z" fill="#666666" p-id="3399"></path></svg>